<svg width="90" height="90" viewBox="0 0 90 90" fill="none" xmlns="http://www.w3.org/2000/svg">
<path d="M53.1816 36.7241V49H47.2925V20.688H53.0157V31.5123H53.2646C53.7438 30.2589 54.518 29.2774 55.587 28.5678C56.6561 27.8489 57.9971 27.4895 59.6099 27.4895C61.0845 27.4895 62.3701 27.8121 63.4668 28.4572C64.5728 29.0931 65.4299 30.0101 66.0382 31.2082C66.6556 32.3971 66.9598 33.821 66.9506 35.4799V49H61.0614V36.5305C61.0706 35.2218 60.7389 34.2035 60.0661 33.4754C59.4025 32.7473 58.4717 32.3833 57.2736 32.3833C56.4718 32.3833 55.7621 32.5538 55.1447 32.8948C54.5364 33.2358 54.0571 33.7334 53.7069 34.3878C53.3659 35.0329 53.1908 35.8117 53.1816 36.7241Z" fill="white"/>
<path d="M28.8891 36.7241V49H23V20.688H28.7232V31.5123H28.9721C29.4513 30.2589 30.2255 29.2774 31.2945 28.5678C32.3636 27.8489 33.7046 27.4895 35.3174 27.4895C36.792 27.4895 38.0776 27.8121 39.1744 28.4572C40.2803 29.0931 41.1374 30.0101 41.7457 31.2082C42.3632 32.3971 42.6673 33.821 42.6581 35.4799V49H36.7689V36.5305C36.7782 35.2218 36.4464 34.2035 35.7736 33.4754C35.11 32.7473 34.1792 32.3833 32.9811 32.3833C32.1793 32.3833 31.4697 32.5538 30.8522 32.8948C30.2439 33.2358 29.7647 33.7334 29.4144 34.3878C29.0734 35.0329 28.8983 35.8117 28.8891 36.7241Z" fill="white"/>
<path d="M56.868 69.1761C53.4009 71.2862 49.4235 72.41 45.3648 72.4251C41.3059 72.4402 37.3196 71.3464 33.8368 69.2621C31.0789 67.6116 28.7196 65.3893 26.9111 62.7562C26.1214 61.6063 26.6006 60.0669 27.8324 59.4122L28.066 59.3024C29.1716 58.8521 30.448 59.2484 31.2441 60.1593L31.4073 60.3623C32.6735 62.0807 34.2512 63.5547 36.0651 64.7026L36.4311 64.9272C39.1245 66.5391 42.2074 67.3849 45.3463 67.3732C48.4849 67.3615 51.5607 66.4926 54.2418 64.8609L54.6062 64.6329C56.4114 63.4716 57.9789 61.9867 59.2323 60.259C60.0002 59.2005 61.3768 58.7002 62.5648 59.1736L62.7995 59.2822C64.0361 59.9277 64.5268 61.4634 63.7456 62.6191C62.0685 65.1003 59.9044 67.2237 57.3782 68.8563L56.868 69.1761Z" fill="white"/>
</svg>
